<svg width="136" height="39" viewBox="0 0 136 39" fill="none" xmlns="http://www.w3.org/2000/svg">
<path d="M11.5595 8.768C13.9355 8.768 15.8555 9.524 17.3195 11.036C18.7835 12.524 19.5155 14.612 19.5155 17.3V29H14.4755V17.984C14.4755 16.4 14.0795 15.188 13.2875 14.348C12.4955 13.484 11.4155 13.052 10.0475 13.052C8.65551 13.052 7.55151 13.484 6.73551 14.348C5.94351 15.188 5.54751 16.4 5.54751 17.984V29H0.507514V9.056H5.54751V11.54C6.21951 10.676 7.07151 10.004 8.10351 9.524C9.15951 9.02 10.3115 8.768 11.5595 8.768ZM31.8323 13.196H28.3403V29H23.2283V13.196H20.9603V9.056H23.2283V8.048C23.2283 5.6 23.9243 3.8 25.3163 2.648C26.7083 1.496 28.8083 0.955999 31.6163 1.028V5.276C30.3923 5.252 29.5403 5.456 29.0603 5.888C28.5803 6.32 28.3403 7.1 28.3403 8.228V9.056H31.8323V13.196ZM39.3464 13.196V22.844C39.3464 23.516 39.5024 24.008 39.8144 24.32C40.1504 24.608 40.7024 24.752 41.4704 24.752H43.8104V29H40.6424C36.3944 29 34.2704 26.936 34.2704 22.808V13.196H31.8944V9.056H34.2704V4.124H39.3464V9.056H43.8104V13.196H39.3464ZM61.179 29.324C59.547 29.324 58.083 29.036 56.787 28.46C55.491 27.86 54.459 27.056 53.691 26.048C52.947 25.04 52.539 23.924 52.467 22.7H57.543C57.639 23.468 58.011 24.104 58.659 24.608C59.331 25.112 60.159 25.364 61.143 25.364C62.103 25.364 62.847 25.172 63.375 24.788C63.927 24.404 64.203 23.912 64.203 23.312C64.203 22.664 63.867 22.184 63.195 21.872C62.547 21.536 61.503 21.176 60.063 20.792C58.575 20.432 57.351 20.06 56.391 19.676C55.455 19.292 54.639 18.704 53.943 17.912C53.271 17.12 52.935 16.052 52.935 14.708C52.935 13.604 53.247 12.596 53.871 11.684C54.519 10.772 55.431 10.052 56.607 9.524C57.807 8.996 59.211 8.732 60.819 8.732C63.195 8.732 65.091 9.332 66.507 10.532C67.923 11.708 68.703 13.304 68.847 15.32H64.023C63.951 14.528 63.615 13.904 63.015 13.448C62.439 12.968 61.659 12.728 60.675 12.728C59.763 12.728 59.055 12.896 58.551 13.232C58.071 13.568 57.831 14.036 57.831 14.636C57.831 15.308 58.167 15.824 58.839 16.184C59.511 16.52 60.555 16.868 61.971 17.228C63.411 17.588 64.599 17.96 65.535 18.344C66.471 18.728 67.275 19.328 67.947 20.144C68.643 20.936 69.003 21.992 69.027 23.312C69.027 24.464 68.703 25.496 68.055 26.408C67.431 27.32 66.519 28.04 65.319 28.568C64.143 29.072 62.763 29.324 61.179 29.324ZM82.7762 8.768C84.2882 8.768 85.6322 9.104 86.8082 9.776C87.9842 10.424 88.8962 11.396 89.5442 12.692C90.2162 13.964 90.5522 15.5 90.5522 17.3V29H85.5122V17.984C85.5122 16.4 85.1162 15.188 84.3242 14.348C83.5322 13.484 82.4522 13.052 81.0842 13.052C79.6922 13.052 78.5882 13.484 77.7722 14.348C76.9802 15.188 76.5842 16.4 76.5842 17.984V29H71.5442V2.36H76.5842V11.54C77.2322 10.676 78.0962 10.004 79.1762 9.524C80.2562 9.02 81.4562 8.768 82.7762 8.768ZM102.581 29.324C100.661 29.324 98.933 28.904 97.397 28.064C95.861 27.2 94.649 25.988 93.761 24.428C92.897 22.868 92.465 21.068 92.465 19.028C92.465 16.988 92.909 15.188 93.797 13.628C94.709 12.068 95.945 10.868 97.505 10.028C99.065 9.164 100.805 8.732 102.725 8.732C104.645 8.732 106.385 9.164 107.945 10.028C109.505 10.868 110.729 12.068 111.617 13.628C112.529 15.188 112.985 16.988 112.985 19.028C112.985 21.068 112.517 22.868 111.581 24.428C110.669 25.988 109.421 27.2 107.837 28.064C106.277 28.904 104.525 29.324 102.581 29.324ZM102.581 24.932C103.493 24.932 104.345 24.716 105.137 24.284C105.953 23.828 106.601 23.156 107.081 22.268C107.561 21.38 107.801 20.3 107.801 19.028C107.801 17.132 107.297 15.68 106.289 14.672C105.305 13.64 104.093 13.124 102.653 13.124C101.213 13.124 100.001 13.64 99.017 14.672C98.057 15.68 97.577 17.132 97.577 19.028C97.577 20.924 98.045 22.388 98.981 23.42C99.941 24.428 101.141 24.932 102.581 24.932ZM120.102 11.936C120.75 11.024 121.638 10.268 122.766 9.668C123.918 9.044 125.226 8.732 126.69 8.732C128.394 8.732 129.93 9.152 131.298 9.992C132.69 10.832 133.782 12.032 134.574 13.592C135.39 15.128 135.798 16.916 135.798 18.956C135.798 20.996 135.39 22.808 134.574 24.392C133.782 25.952 132.69 27.164 131.298 28.028C129.93 28.892 128.394 29.324 126.69 29.324C125.226 29.324 123.93 29.024 122.802 28.424C121.698 27.824 120.798 27.068 120.102 26.156V38.504H115.062V9.056H120.102V11.936ZM130.65 18.956C130.65 17.756 130.398 16.724 129.894 15.86C129.414 14.972 128.766 14.3 127.95 13.844C127.158 13.388 126.294 13.16 125.358 13.16C124.446 13.16 123.582 13.4 122.766 13.88C121.974 14.336 121.326 15.008 120.822 15.896C120.342 16.784 120.102 17.828 120.102 19.028C120.102 20.228 120.342 21.272 120.822 22.16C121.326 23.048 121.974 23.732 122.766 24.212C123.582 24.668 124.446 24.896 125.358 24.896C126.294 24.896 127.158 24.656 127.95 24.176C128.766 23.696 129.414 23.012 129.894 22.124C130.398 21.236 130.65 20.18 130.65 18.956Z" fill="white"/>
<path d="M48.0475 29.252C47.1355 29.252 46.3795 28.976 45.7795 28.424C45.2035 27.848 44.9155 27.14 44.9155 26.3C44.9155 25.46 45.2035 24.764 45.7795 24.212C46.3795 23.636 47.1355 23.348 48.0475 23.348C48.9355 23.348 49.6675 23.636 50.2435 24.212C50.8195 24.764 51.1075 25.46 51.1075 26.3C51.1075 27.14 50.8195 27.848 50.2435 28.424C49.6675 28.976 48.9355 29.252 48.0475 29.252Z" fill="#7000FF"/>
</svg>
