<svg width="147" height="19" viewBox="0 0 147 19" fill="none" xmlns="http://www.w3.org/2000/svg">
<path d="M122.92 9.60653C121.871 8.92216 120.714 8.43549 119.619 7.82716C118.909 7.43174 118.153 7.08195 117.536 6.58007C116.487 5.72841 116.703 4.05549 117.798 3.32549C119.372 2.29132 121.979 2.86924 122.256 4.9832C122.256 5.02882 122.303 5.05924 122.349 5.05924H124.724C124.786 5.05924 124.832 5.01362 124.817 4.95278C124.693 3.49278 124.123 2.27611 123.074 1.50049C122.071 0.75528 120.93 0.359863 119.711 0.359863C113.433 0.359863 112.862 6.91466 116.24 8.98299C116.626 9.22633 119.942 10.8688 121.115 11.5836C122.287 12.2984 122.657 13.6063 122.148 14.6405C121.686 15.5834 120.482 16.2374 119.279 16.1613C117.968 16.0853 116.95 15.3857 116.595 14.2907C116.533 14.093 116.503 13.7128 116.503 13.5455C116.503 13.4999 116.456 13.4542 116.41 13.4542H113.834C113.788 13.4542 113.741 13.4999 113.741 13.5455C113.741 15.3857 114.204 16.4047 115.469 17.3324C116.657 18.2144 117.953 18.5795 119.295 18.5795C122.812 18.5795 124.632 16.6176 125.002 14.5797C125.326 12.5874 124.724 10.7928 122.92 9.60653Z" fill="white"/>
<path d="M11.0706 0.694336H9.92909H8.67964C8.63336 0.694336 8.60252 0.724752 8.58709 0.755168L6.47382 7.62933C6.44297 7.72058 6.31957 7.72058 6.28872 7.62933L4.17544 0.755168C4.16002 0.709543 4.12917 0.694336 4.0829 0.694336H2.83344H1.69197H0.149438C0.103162 0.694336 0.0568848 0.73996 0.0568848 0.785585V18.336C0.0568848 18.3816 0.103162 18.4273 0.149438 18.4273H2.72546C2.77174 18.4273 2.81802 18.3816 2.81802 18.336V4.99829C2.81802 4.89183 2.97227 4.87663 3.00312 4.96788L5.13182 11.8877L5.28607 12.3743C5.30149 12.42 5.33234 12.4352 5.37862 12.4352H7.35307C7.39934 12.4352 7.43019 12.4048 7.44561 12.3743L7.59987 11.8877L9.72856 4.96788C9.75941 4.86142 9.91367 4.89183 9.91367 4.99829V18.336C9.91367 18.3816 9.95994 18.4273 10.0062 18.4273H12.5822C12.6285 18.4273 12.6748 18.3816 12.6748 18.336V0.785585C12.6748 0.73996 12.6285 0.694336 12.5822 0.694336H11.0706Z" fill="white"/>
<path d="M83.477 0.694336C83.4307 0.694336 83.3998 0.724752 83.3844 0.755168L81.2711 7.62933C81.2403 7.72058 81.1169 7.72058 81.086 7.62933L78.9728 0.755168C78.9573 0.709543 78.9265 0.694336 78.8802 0.694336H74.9622C74.9159 0.694336 74.8696 0.73996 74.8696 0.785585V18.336C74.8696 18.3816 74.9159 18.4273 74.9622 18.4273H77.5382C77.5845 18.4273 77.6308 18.3816 77.6308 18.336V4.99829C77.6308 4.89183 77.785 4.87663 77.8159 4.96788L79.9446 11.8877L80.0988 12.3743C80.1142 12.42 80.1451 12.4352 80.1914 12.4352H82.1658C82.2121 12.4352 82.2429 12.4048 82.2584 12.3743L82.4126 11.8877L84.5413 4.96788C84.5722 4.86142 84.7264 4.89183 84.7264 4.99829V18.336C84.7264 18.3816 84.7727 18.4273 84.819 18.4273H87.395C87.4413 18.4273 87.4876 18.3816 87.4876 18.336V0.785585C87.4876 0.73996 87.4413 0.694336 87.395 0.694336H83.477Z" fill="white"/>
<path d="M50.2509 0.694336H45.4536H42.8776H38.0803C38.0341 0.694336 37.9878 0.73996 37.9878 0.785585V2.97559C37.9878 3.02121 38.0341 3.06683 38.0803 3.06683H42.7851V18.336C42.7851 18.3816 42.8313 18.4273 42.8776 18.4273H45.4536C45.4999 18.4273 45.5462 18.3816 45.5462 18.336V3.06683H50.2509C50.2972 3.06683 50.3435 3.02121 50.3435 2.97559V0.785585C50.3435 0.73996 50.3126 0.694336 50.2509 0.694336Z" fill="white"/>
<path d="M65.4447 18.4273H67.7894C67.8511 18.4273 67.8973 18.3665 67.8819 18.3056L63.0384 0.69438C63.023 0.648755 62.9921 0.633545 62.9458 0.633545H62.0512H60.4778H59.5831C59.5368 0.633545 59.506 0.663963 59.4906 0.69438L54.647 18.3056C54.6316 18.3665 54.6779 18.4273 54.7396 18.4273H57.0842C57.1305 18.4273 57.1614 18.3969 57.1768 18.3665L58.5805 13.2413C58.5959 13.1956 58.6267 13.1804 58.673 13.1804H63.8559C63.9022 13.1804 63.933 13.2108 63.9485 13.2413L65.3522 18.3665C65.3676 18.3969 65.4139 18.4273 65.4447 18.4273ZM59.29 10.671L61.1719 3.81209C61.2028 3.72084 61.3262 3.72084 61.357 3.81209L63.2389 10.671C63.2543 10.7319 63.2081 10.7927 63.1464 10.7927H59.3826C59.3209 10.7927 59.2746 10.7319 59.29 10.671Z" fill="white"/>
<path d="M105.427 18.4273H107.772C107.834 18.4273 107.88 18.3665 107.865 18.3056L103.021 0.69438C103.006 0.648755 102.975 0.633545 102.929 0.633545H102.034H100.46H99.5658C99.5195 0.633545 99.4887 0.663963 99.4733 0.69438L94.6297 18.3056C94.6143 18.3665 94.6606 18.4273 94.7223 18.4273H97.0669C97.1132 18.4273 97.144 18.3969 97.1595 18.3665L98.5632 13.2413C98.5786 13.1956 98.6094 13.1804 98.6557 13.1804H103.839C103.885 13.1804 103.916 13.2108 103.931 13.2413L105.335 18.3665C105.35 18.3969 105.381 18.4273 105.427 18.4273ZM99.2727 10.671L101.155 3.81209C101.185 3.72084 101.309 3.72084 101.34 3.81209L103.222 10.671C103.237 10.7319 103.191 10.7927 103.129 10.7927H99.3653C99.3036 10.7927 99.2573 10.7319 99.2727 10.671Z" fill="white"/>
<path d="M23.1332 15.8268V10.3822C23.1332 10.3366 23.1795 10.291 23.2258 10.291H30.09C30.1363 10.291 30.1826 10.2453 30.1826 10.1997V8.00972C30.1826 7.96409 30.1363 7.91847 30.09 7.91847H23.2258C23.1795 7.91847 23.1332 7.87284 23.1332 7.82722V3.17347C23.1332 3.12784 23.1795 3.08222 23.2258 3.08222H31.031C31.0773 3.08222 31.1235 3.03659 31.1235 2.99097V0.800968C31.1235 0.755343 31.0773 0.709717 31.031 0.709717H23.1332H20.4646C20.4184 0.709717 20.3721 0.755343 20.3721 0.800968V3.08222V7.93368V10.3062V15.9333V18.3362C20.3721 18.3818 20.4184 18.4274 20.4646 18.4274H23.1332H31.3549C31.4012 18.4274 31.4475 18.3818 31.4475 18.3362V16.0245C31.4475 15.9789 31.4012 15.9333 31.3549 15.9333H23.2103C23.1641 15.918 23.1332 15.8876 23.1332 15.8268Z" fill="white"/>
<path d="M146.459 18.2753L137.543 9.19597C137.512 9.16555 137.512 9.10472 137.543 9.0743L145.564 0.8618C145.626 0.800967 145.579 0.709717 145.502 0.709717H142.217C142.186 0.709717 142.17 0.724925 142.155 0.740133L135.352 7.70555C135.291 7.76638 135.198 7.72076 135.198 7.64472V0.800968C135.198 0.755343 135.152 0.709717 135.106 0.709717H132.53C132.483 0.709717 132.437 0.755343 132.437 0.800968V18.3514C132.437 18.397 132.483 18.4426 132.53 18.4426H135.106C135.152 18.4426 135.198 18.397 135.198 18.3514V10.6256C135.198 10.5495 135.306 10.5039 135.352 10.5647L143.065 18.4122C143.08 18.4274 143.111 18.4426 143.127 18.4426H146.412C146.474 18.4274 146.52 18.321 146.459 18.2753Z" fill="white"/>
</svg>
