<svg width="41" height="37" viewBox="0 0 41 37" fill="none" xmlns="http://www.w3.org/2000/svg">
<path d="M38.4568 0.25L22.8618 11.6562L25.7618 4.93417L38.4568 0.25Z" fill="#E17726" stroke="#E17726" stroke-width="0.49375" stroke-linecap="round" stroke-linejoin="round"/>
<path d="M2.48486 0.25L17.941 11.7627L15.1799 4.93417L2.48486 0.25Z" fill="#E27625" stroke="#E27625" stroke-width="0.49375" stroke-linecap="round" stroke-linejoin="round"/>
<path d="M32.842 26.6973L28.6926 32.9631L37.5776 35.3812L40.1228 26.8341L32.842 26.6973Z" fill="#E27625" stroke="#E27625" stroke-width="0.49375" stroke-linecap="round" stroke-linejoin="round"/>
<path d="M0.834473 26.8341L3.36423 35.3812L12.2338 32.9631L8.0998 26.6973L0.834473 26.8341Z" fill="#E27625" stroke="#E27625" stroke-width="0.49375" stroke-linecap="round" stroke-linejoin="round"/>
<path d="M11.7556 16.1123L9.2876 19.7927L18.08 20.1881L17.7869 10.835L11.7556 16.1123Z" fill="#E27625" stroke="#E27625" stroke-width="0.49375" stroke-linecap="round" stroke-linejoin="round"/>
<path d="M29.1862 16.1123L23.0623 10.7285L22.8618 20.1881L31.6543 19.7927L29.1862 16.1123Z" fill="#E27625" stroke="#E27625" stroke-width="0.49375" stroke-linecap="round" stroke-linejoin="round"/>
<path d="M12.2339 32.9631L17.5556 30.4234L12.9743 26.895L12.2339 32.9631Z" fill="#E27625" stroke="#E27625" stroke-width="0.49375" stroke-linecap="round" stroke-linejoin="round"/>
<path d="M23.3862 30.4234L28.6925 32.9631L27.9675 26.895L23.3862 30.4234Z" fill="#E27625" stroke="#E27625" stroke-width="0.49375" stroke-linecap="round" stroke-linejoin="round"/>
<path d="M28.6925 32.9631L23.3862 30.4233L23.8181 33.83L23.7719 35.2748L28.6925 32.9631Z" fill="#D5BFB2" stroke="#D5BFB2" stroke-width="0.49375" stroke-linecap="round" stroke-linejoin="round"/>
<path d="M12.2336 32.9631L17.1697 35.2748L17.1389 33.83L17.5554 30.4233L12.2336 32.9631Z" fill="#D5BFB2" stroke="#D5BFB2" stroke-width="0.49375" stroke-linecap="round" stroke-linejoin="round"/>
<path d="M17.2625 24.6443L12.8508 23.3668L15.9667 21.9524L17.2625 24.6443Z" fill="#233447" stroke="#233447" stroke-width="0.49375" stroke-linecap="round" stroke-linejoin="round"/>
<path d="M23.6794 24.6443L24.9752 21.9524L28.1065 23.3668L23.6794 24.6443Z" fill="#233447" stroke="#233447" stroke-width="0.49375" stroke-linecap="round" stroke-linejoin="round"/>
<path d="M12.2338 32.9631L13.0051 26.6973L8.09985 26.8341L12.2338 32.9631Z" fill="#CC6228" stroke="#CC6228" stroke-width="0.49375" stroke-linecap="round" stroke-linejoin="round"/>
<path d="M27.9368 26.6973L28.6926 32.9631L32.842 26.8341L27.9368 26.6973Z" fill="#CC6228" stroke="#CC6228" stroke-width="0.49375" stroke-linecap="round" stroke-linejoin="round"/>
<path d="M31.6543 19.7927L22.8618 20.1881L23.6794 24.6442L24.9751 21.9523L28.1064 23.3667L31.6543 19.7927Z" fill="#CC6228" stroke="#CC6228" stroke-width="0.49375" stroke-linecap="round" stroke-linejoin="round"/>
<path d="M12.8508 23.3667L15.9668 21.9523L17.2625 24.6442L18.08 20.1881L9.2876 19.7927L12.8508 23.3667Z" fill="#CC6228" stroke="#CC6228" stroke-width="0.49375" stroke-linecap="round" stroke-linejoin="round"/>
<path d="M9.2876 19.7927L12.9742 26.895L12.8508 23.3667L9.2876 19.7927Z" fill="#E27525" stroke="#E27525" stroke-width="0.49375" stroke-linecap="round" stroke-linejoin="round"/>
<path d="M28.1066 23.3667L27.9678 26.895L31.6544 19.7927L28.1066 23.3667Z" fill="#E27525" stroke="#E27525" stroke-width="0.49375" stroke-linecap="round" stroke-linejoin="round"/>
<path d="M18.08 20.1882L17.2625 24.6443L18.2959 29.9064L18.5273 22.9714L18.08 20.1882Z" fill="#E27525" stroke="#E27525" stroke-width="0.49375" stroke-linecap="round" stroke-linejoin="round"/>
<path d="M22.8618 20.1882L22.4299 22.9561L22.6459 29.9064L23.6794 24.6443L22.8618 20.1882Z" fill="#E27525" stroke="#E27525" stroke-width="0.49375" stroke-linecap="round" stroke-linejoin="round"/>
<path d="M23.6792 24.6442L22.6458 29.9063L23.3862 30.4234L27.9675 26.895L28.1063 23.3667L23.6792 24.6442Z" fill="#F5841F" stroke="#F5841F" stroke-width="0.49375" stroke-linecap="round" stroke-linejoin="round"/>
<path d="M12.8508 23.3667L12.9742 26.895L17.5556 30.4234L18.296 29.9063L17.2625 24.6442L12.8508 23.3667Z" fill="#F5841F" stroke="#F5841F" stroke-width="0.49375" stroke-linecap="round" stroke-linejoin="round"/>
<path d="M23.7718 35.2748L23.8181 33.83L23.417 33.4954H17.5245L17.1389 33.83L17.1697 35.2748L12.2336 32.9631L13.9613 34.3623L17.4628 36.75H23.4633L26.9803 34.3623L28.6925 32.9631L23.7718 35.2748Z" fill="#C0AC9D" stroke="#C0AC9D" stroke-width="0.49375" stroke-linecap="round" stroke-linejoin="round"/>
<path d="M23.3862 30.4233L22.6458 29.9062H18.2958L17.5554 30.4233L17.1389 33.83L17.5245 33.4954H23.417L23.8181 33.83L23.3862 30.4233Z" fill="white" stroke="white" stroke-width="0.49375" stroke-linecap="round" stroke-linejoin="round"/>
<path d="M39.1201 12.4015L40.4312 6.10521L38.4568 0.25L23.3862 11.276L29.1862 16.1123L37.377 18.4696L39.1818 16.386L38.3951 15.8233L39.6445 14.6979L38.6881 13.9679L39.9376 13.025L39.1201 12.4015Z" fill="#763E1A" stroke="#763E1A" stroke-width="0.49375" stroke-linecap="round" stroke-linejoin="round"/>
<path d="M0.510498 6.10521L1.83708 12.4015L0.988683 13.025L2.25356 13.9679L1.29719 14.6979L2.54664 15.8233L1.75995 16.386L3.56471 18.4696L11.7556 16.1123L17.5555 11.276L2.48494 0.25L0.510498 6.10521Z" fill="#763E1A" stroke="#763E1A" stroke-width="0.49375" stroke-linecap="round" stroke-linejoin="round"/>
<path d="M37.377 18.4696L29.1861 16.1123L31.6542 19.7927L27.9675 26.895L32.8419 26.8342H40.1227L37.377 18.4696Z" fill="#F5841F" stroke="#F5841F" stroke-width="0.49375" stroke-linecap="round" stroke-linejoin="round"/>
<path d="M11.7556 16.1123L3.56476 18.4696L0.834473 26.8342H8.0998L12.9742 26.895L9.28755 19.7927L11.7556 16.1123Z" fill="#F5841F" stroke="#F5841F" stroke-width="0.49375" stroke-linecap="round" stroke-linejoin="round"/>
<path d="M22.8617 20.188L23.3862 11.276L25.7617 4.93408H15.1799L17.5554 11.276L18.0799 20.188L18.2804 22.9864L18.2958 29.9062H22.6458L22.6612 22.9864L22.8617 20.188Z" fill="#F5841F" stroke="#F5841F" stroke-width="0.49375" stroke-linecap="round" stroke-linejoin="round"/>
</svg>
